<?xml version="1.0" standalone="no"?>
<!DOCTYPE svg PUBLIC "-//W3C//DTD SVG 20010904//EN"
 "http://www.w3.org/TR/2001/REC-SVG-20010904/DTD/svg10.dtd">
<svg version="1.0" xmlns="http://www.w3.org/2000/svg"
 width="240.000000pt" height="240.000000pt" viewBox="0 0 240.000000 240.000000"
 preserveAspectRatio="xMidYMid meet">

<g transform="translate(0.000000,240.000000) scale(0.100000,-0.100000)"
fill="#000000" stroke="none">
<path d="M1845 2028 c-33 -67 -93 -172 -134 -232 -40 -61 -92 -156 -115 -211
-23 -56 -49 -111 -58 -124 -16 -22 -16 -22 -47 43 -17 36 -31 71 -31 76 0 6
-11 10 -25 10 -30 0 -32 -18 -11 -78 13 -35 13 -42 0 -53 -8 -6 -16 -10 -18
-8 -25 27 -78 150 -132 304 -36 105 -77 211 -90 237 l-24 47 35 -6 c40 -6 44
3 15 39 -51 66 -156 74 -259 20 -49 -26 -66 -30 -77 -21 -8 6 -14 8 -14 5 0
-4 -10 5 -22 19 -33 37 -86 43 -140 15 -81 -42 -127 -99 -235 -295 -121 -220
-167 -329 -175 -410 l-3 -40 70 -3 c56 -2 77 2 103 18 37 23 86 96 130 193
l31 67 -31 0 c-17 0 -37 -8 -45 -17 -23 -28 25 53 92 157 59 90 142 192 207
252 l29 28 11 -30 c8 -25 13 -28 24 -19 11 9 19 8 36 -7 20 -18 21 -18 15 -1
-4 11 -3 16 3 12 18 -11 96 -176 125 -265 52 -157 110 -266 180 -336 l34 -34
171 0 c196 0 216 6 288 84 57 62 53 68 -10 14 -76 -64 -89 -69 -40 -15 38 42
127 211 263 502 15 33 44 88 63 123 l36 62 -83 0 -83 0 -59 -122z"/>
<path d="M1815 2079 c-26 -24 -56 -60 -66 -82 l-20 -38 32 3 c29 3 37 11 72
76 22 40 37 75 34 78 -3 3 -26 -14 -52 -37z"/>
<path d="M1090 1441 c0 -14 61 -48 100 -56 l35 -7 -40 35 c-38 34 -95 51 -95
28z"/>
<path d="M1838 1433 c7 -3 16 -2 19 1 4 3 -2 6 -13 5 -11 0 -14 -3 -6 -6z"/>
<path d="M1926 1431 c-4 -5 -2 -20 3 -33 9 -21 10 -21 10 10 1 32 -3 39 -13
23z"/>
<path d="M1871 1403 c1 -18 3 -21 6 -10 2 9 9 15 14 12 5 -3 6 1 3 9 -10 26
-24 18 -23 -11z"/>
<path d="M50 1150 c0 -7 382 -10 1125 -10 743 0 1125 3 1125 10 0 7 -382 10
-1125 10 -743 0 -1125 -3 -1125 -10z"/>
<path d="M1245 940 c-4 -7 -3 -16 3 -22 14 -14 45 -2 40 15 -6 16 -34 21 -43
7z"/>
<path d="M622 783 l3 -158 83 -3 c67 -2 82 0 82 12 0 11 -15 16 -62 18 l-63 3
-3 58 -3 57 61 0 c47 0 60 3 60 15 0 12 -13 15 -61 15 l-60 0 3 53 3 52 63 3
c46 2 62 7 62 17 0 12 -17 15 -85 15 l-86 0 3 -157z"/>
<path d="M1107 903 c-4 -3 -7 -17 -7 -30 0 -13 -6 -23 -14 -23 -24 0 -30 -21
-7 -27 19 -5 21 -13 21 -77 0 -92 14 -121 59 -121 42 0 53 22 14 27 -28 3 -28
3 -31 86 l-3 82 31 0 c20 0 30 5 30 15 0 10 -10 15 -30 15 -27 0 -30 3 -30 30
0 28 -17 40 -33 23z"/>
<path d="M1370 880 c0 -23 -4 -30 -20 -30 -11 0 -20 -6 -20 -14 0 -7 9 -16 20
-19 18 -5 20 -14 20 -85 0 -60 4 -85 16 -96 20 -21 74 -21 74 -1 0 8 -9 15
-20 15 -29 0 -41 33 -38 103 3 59 4 62 31 65 15 2 27 9 27 17 0 8 -12 15 -27
17 -22 2 -29 9 -31 31 -5 38 -32 36 -32 -3z"/>
<path d="M840 734 c0 -105 2 -115 18 -112 14 3 17 16 20 83 3 89 17 115 62
115 41 0 49 -17 52 -110 3 -71 6 -85 21 -88 15 -3 17 6 17 83 0 82 -10 121
-34 137 -20 14 -83 8 -97 -8 -11 -14 -13 -14 -21 0 -5 9 -16 16 -23 16 -12 0
-15 -21 -15 -116z"/>
<path d="M1250 735 c0 -96 3 -115 15 -115 12 0 15 19 15 115 0 96 -3 115 -15
115 -12 0 -15 -19 -15 -115z"/>
<path d="M1485 833 c46 -115 75 -199 75 -217 0 -30 -27 -66 -51 -66 -10 0 -19
-7 -19 -15 0 -21 46 -19 68 3 15 15 132 288 132 307 0 3 -8 5 -18 5 -13 0 -26
-23 -51 -90 -18 -49 -34 -90 -36 -90 -1 0 -17 41 -35 90 -26 72 -36 90 -52 90
-15 0 -18 -4 -13 -17z"/>
<path d="M2057 573 c-4 -3 -7 -77 -7 -164 0 -125 3 -158 14 -162 21 -8 26 2
26 57 l0 51 56 -58 c53 -54 77 -67 88 -49 3 5 -19 33 -49 62 l-55 54 52 53
c50 51 51 53 26 53 -19 0 -37 -12 -64 -45 -20 -25 -40 -45 -45 -45 -5 0 -9 45
-9 100 0 77 -3 100 -13 100 -8 0 -17 -3 -20 -7z"/>
<path d="M80 399 c0 -124 3 -160 13 -157 7 3 14 31 17 74 l5 69 58 3 c42 2 57
7 57 17 0 12 -14 15 -60 15 l-60 0 0 55 0 55 65 0 c51 0 65 3 65 15 0 12 -16
15 -80 15 l-80 0 0 -161z"/>
<path d="M360 473 c-8 -3 -21 -12 -27 -21 -12 -14 -13 -14 -13 1 0 10 -8 17
-20 17 -19 0 -20 -7 -20 -108 0 -60 3 -111 6 -115 3 -3 12 -3 20 0 10 4 14 25
14 83 0 84 14 110 59 110 16 0 21 5 19 17 -3 18 -16 24 -38 16z"/>
<path d="M468 468 c-17 -6 -28 -17 -28 -28 0 -18 2 -18 37 -4 43 18 83 6 83
-25 0 -20 -9 -25 -72 -36 -63 -10 -89 -74 -48 -115 23 -23 68 -26 95 -6 17 12
21 12 31 -2 23 -31 34 -2 34 89 0 82 -2 92 -25 114 -26 27 -60 31 -107 13z
m92 -138 c0 -52 -68 -79 -94 -37 -20 32 13 59 82 66 7 1 12 -11 12 -29z"/>
<path d="M716 459 c-21 -17 -26 -18 -26 -5 0 9 -7 16 -15 16 -13 0 -15 -17
-13 -112 2 -72 7 -113 14 -115 8 -3 13 23 15 82 4 77 7 89 28 106 28 23 32 23
57 5 15 -12 20 -30 24 -103 4 -69 8 -88 20 -88 12 0 16 18 20 85 3 47 8 90 12
96 13 20 47 23 68 6 16 -14 20 -32 22 -102 2 -68 6 -85 18 -85 12 0 16 18 18
93 3 87 1 94 -22 117 -31 31 -65 32 -101 4 -16 -13 -30 -18 -33 -12 -9 14 -47
33 -65 33 -8 0 -26 -9 -41 -21z"/>
<path d="M1084 461 c-69 -42 -71 -171 -3 -206 49 -26 129 -14 129 19 0 11 -8
11 -40 3 -35 -10 -43 -8 -67 9 -16 12 -29 31 -31 43 -3 20 0 21 77 21 72 0 81
2 81 19 0 38 -23 82 -51 96 -37 20 -58 19 -95 -4z m94 -39 c25 -32 15 -42 -48
-42 -64 0 -66 1 -49 31 20 38 70 43 97 11z"/>
<path d="M1690 473 c-85 -31 -102 -167 -27 -213 97 -59 202 29 168 140 -18 61
-83 94 -141 73z m93 -55 c26 -31 22 -93 -8 -123 -64 -64 -152 15 -115 104 21
52 86 63 123 19z"/>
<path d="M1957 460 c-22 -18 -27 -19 -27 -6 0 9 -9 16 -20 16 -20 0 -21 -5
-18 -112 3 -98 5 -113 21 -116 15 -3 17 6 17 75 0 89 15 123 56 123 18 0 25 5
22 17 -5 25 -22 26 -51 3z"/>
<path d="M1286 423 c8 -27 22 -76 31 -110 16 -58 33 -80 53 -68 4 2 18 41 31
85 12 44 26 80 29 80 3 0 14 -31 24 -70 10 -38 24 -77 32 -87 11 -16 14 -16
27 -3 13 13 67 182 67 209 0 6 -7 11 -15 11 -8 0 -19 -17 -25 -42 -27 -104
-37 -133 -43 -118 -3 8 -15 48 -27 88 -16 55 -25 72 -39 72 -14 0 -23 -18 -41
-80 -13 -45 -26 -83 -30 -85 -4 -3 -13 17 -19 43 -29 117 -31 122 -51 122 -18
0 -18 -2 -4 -47z"/>
</g>
</svg>
